<?xml version="1.0" standalone="no"?>
<!DOCTYPE svg PUBLIC "-//W3C//DTD SVG 20010904//EN"
 "http://www.w3.org/TR/2001/REC-SVG-20010904/DTD/svg10.dtd">
<svg version="1.0" xmlns="http://www.w3.org/2000/svg"
 width="330.000000pt" height="330.000000pt" viewBox="0 0 330.000000 330.000000"
 preserveAspectRatio="xMidYMid meet">
<metadata>
Created by potrace 1.14, written by Peter Selinger 2001-2017
</metadata>
<g transform="translate(0.000000,330.000000) scale(0.100000,-0.100000)"
fill="#000000" stroke="none">
<path d="M0 1650 l0 -1650 1650 0 1650 0 0 1650 0 1650 -1650 0 -1650 0 0
-1650z m1610 1546 l0 -24 -627 -6 c-346 -4 -701 -9 -790 -12 l-163 -5 0 25 0
26 569 0 c369 0 572 4 576 10 4 6 88 10 221 10 l214 0 0 -24z m450 -92 c0 -14
-7 -15 -37 -10 -21 3 -60 6 -88 7 -72 1 -20 17 63 18 51 1 62 -2 62 -15z
m-455 -71 c3 -10 -59 -13 -290 -13 -190 0 -295 -4 -295 -10 0 -7 -172 -10
-495 -10 -391 0 -495 3 -495 13 0 9 56 12 253 13 155 0 251 4 250 9 -2 16
1066 13 1072 -2z m1593 10 c-27 -2 -69 -2 -95 0 -27 2 -5 3 47 3 52 0 74 -1
48 -3z m-795 -20 c-29 -2 -77 -2 -105 0 -29 2 -6 3 52 3 58 0 81 -1 53 -3z
m795 0 c-27 -2 -69 -2 -95 0 -27 2 -5 3 47 3 52 0 74 -1 48 -3z m-747 -25 c0
-9 2 -9 6 1 5 11 7 11 14 0 7 -12 9 -11 9 1 0 13 1 13 10 0 9 -13 10 -13 10 0
0 13 1 13 10 0 9 -13 10 -13 10 0 0 13 1 13 10 0 9 -13 10 -13 10 0 0 13 1 13
10 0 9 -13 10 -13 10 0 0 13 1 13 10 0 9 -13 10 -13 10 0 0 13 1 13 10 0 9
-13 10 -13 10 0 0 13 1 13 10 0 9 -13 10 -13 10 0 0 13 1 13 10 0 9 -13 10
-13 10 0 0 13 1 13 10 0 9 -13 10 -13 10 0 0 13 1 13 10 0 9 -13 10 -13 10 0
0 13 1 13 10 0 9 -13 10 -13 10 0 0 13 1 13 10 0 9 -13 10 -13 10 0 0 13 1 13
10 0 9 -13 10 -13 10 0 0 13 1 13 10 0 9 -13 10 -13 10 0 0 13 1 13 10 0 9
-13 10 -13 10 0 0 13 1 13 10 0 9 -13 10 -13 10 0 0 13 1 13 10 0 9 -13 10
-13 10 0 0 13 1 13 10 0 9 -13 10 -13 10 0 0 13 1 13 10 0 9 -13 10 -13 10 0
0 13 1 13 10 0 9 -13 10 -13 10 0 0 13 1 13 10 0 9 -13 10 -13 10 0 0 13 1 13
10 0 9 -13 10 -13 10 0 0 13 1 13 10 0 9 -13 10 -13 10 0 0 13 1 13 10 0 9
-13 10 -13 10 0 0 13 1 13 10 0 9 -13 10 -13 10 0 0 13 1 13 10 0 9 -13 10
-13 10 0 0 13 1 13 10 0 9 -13 10 -13 10 0 0 13 1 13 10 0 9 -13 10 -13 10 0
0 13 1 13 10 0 6 -10 10 -11 10 -2 0 9 25 12 90 12 65 0 90 -3 90 -12 0 -9 4
-8 10 2 7 11 10 5 10 -22 l0 -38 -570 0 c-373 0 -570 -3 -570 -10 0 -6 -78
-10 -215 -10 l-215 0 0 38 c0 27 3 33 10 22 9 -13 10 -13 10 0 0 13 1 13 10 0
9 -13 10 -13 10 0 0 13 1 13 10 0 9 -13 10 -13 10 0 0 13 1 13 10 0 9 -13 10
-13 10 0 0 13 1 13 10 0 9 -13 10 -13 10 0 0 13 1 13 10 0 9 -13 10 -13 10 0
0 13 1 13 10 0 9 -13 10 -13 10 0 0 13 1 13 10 0 9 -13 10 -13 10 0 0 13 1 13
10 0 9 -13 10 -13 10 0 0 13 1 13 10 0 9 -13 10 -13 10 0 0 13 1 13 10 0 9
-13 10 -13 10 0 0 13 1 13 10 0 9 -13 10 -13 10 0 0 13 1 13 10 0 9 -13 10
-13 10 0 0 13 1 13 10 0 9 -13 10 -13 10 0 0 13 1 13 10 0 9 -13 10 -13 10 0
0 13 1 13 10 0 9 -13 10 -13 10 0 0 13 1 13 10 0 9 -13 10 -13 10 0 0 13 1 13
10 0 9 -13 10 -13 10 0 0 13 1 13 10 0 9 -13 10 -13 10 0 0 13 1 13 10 0 9
-13 10 -13 10 0 0 13 1 13 10 0 9 -13 10 -13 10 0 0 13 1 13 10 0 9 -13 10
-13 10 0 0 13 1 13 10 0 9 -13 10 -13 10 0 0 13 1 13 10 0 9 -13 10 -13 10 0
0 13 1 13 10 0 9 -13 10 -13 10 0 0 13 1 13 10 0 9 -13 10 -13 10 0 0 13 1 13
10 0 9 -13 10 -13 10 0 0 13 1 13 10 0 6 -10 10 -11 10 -2 0 8 19 13 58 14
l57 1 -60 7 c-54 6 -50 7 43 8 75 2 102 -1 103 -10z m-878 -75 c-18 -2 -48 -2
-65 0 -18 2 -4 4 32 4 36 0 50 -2 33 -4z m-780 -20 c-24 -2 -62 -2 -85 0 -24
2 -5 4 42 4 47 0 66 -2 43 -4z m780 0 c-18 -2 -48 -2 -65 0 -18 2 -4 4 32 4
36 0 50 -2 33 -4z m-780 -20 c-24 -2 -62 -2 -85 0 -24 2 -5 4 42 4 47 0 66 -2
43 -4z m780 0 c-18 -2 -48 -2 -65 0 -18 2 -4 4 32 4 36 0 50 -2 33 -4z m-780
-20 c-24 -2 -62 -2 -85 0 -24 2 -5 4 42 4 47 0 66 -2 43 -4z m780 0 c-18 -2
-48 -2 -65 0 -18 2 -4 4 32 4 36 0 50 -2 33 -4z m-780 -20 c-24 -2 -62 -2 -85
0 -24 2 -5 4 42 4 47 0 66 -2 43 -4z m780 0 c-18 -2 -48 -2 -65 0 -18 2 -4 4
32 4 36 0 50 -2 33 -4z m-780 -20 c-24 -2 -62 -2 -85 0 -24 2 -5 4 42 4 47 0
66 -2 43 -4z m780 0 c-18 -2 -48 -2 -65 0 -18 2 -4 4 32 4 36 0 50 -2 33 -4z
m687 -13 c0 -6 -27 -10 -61 -10 -37 0 -58 4 -54 10 3 6 31 10 61 10 30 0 54
-4 54 -10z m-1467 -7 c-24 -2 -62 -2 -85 0 -24 2 -5 4 42 4 47 0 66 -2 43 -4z
m780 0 c-18 -2 -48 -2 -65 0 -18 2 -4 4 32 4 36 0 50 -2 33 -4z m-790 -20
c-18 -2 -48 -2 -65 0 -18 2 -4 4 32 4 36 0 50 -2 33 -4z m1085 -14 c-2 -6 -8
-10 -13 -10 -5 0 -11 4 -13 10 -2 6 4 11 13 11 9 0 15 -5 13 -11z m-22 -271
c5 -17 43 -18 655 -18 426 0 649 3 649 10 0 13 61 13 94 0 20 -7 26 -16 26
-40 l0 -30 -435 0 c-378 0 -435 2 -435 15 0 13 51 15 378 18 207 1 47 3 -355
5 l-733 2 0 28 0 27 75 0 c63 0 76 -3 81 -17z m1409 -128 c13 -11 16 -32 13
-117 l-2 -103 -138 0 c-85 0 -138 4 -138 10 0 6 -85 10 -235 10 -150 0 -235 4
-235 10 0 13 -57 13 -62 0 -5 -15 -589 -15 -598 0 -6 9 -9 9 -12 -1 -3 -10
-26 -14 -81 -14 l-77 -1 0 111 0 111 775 -2 c624 -1 778 -4 790 -14z m-2615
-60 c0 -6 -108 -10 -305 -10 -197 0 -305 4 -305 10 0 6 108 10 305 10 197 0
305 -4 305 -10z m510 0 c0 -6 -48 -10 -125 -10 -77 0 -125 4 -125 10 0 6 48
10 125 10 77 0 125 -4 125 -10z m455 -20 c-4 -6 -57 -10 -125 -10 -68 0 -121
4 -125 10 -4 6 40 10 125 10 85 0 129 -4 125 -10z m-590 -10 c4 -6 115 -10
301 -10 l294 0 0 -25 0 -25 -120 0 c-73 0 -120 4 -120 10 0 7 -230 10 -670 10
l-670 0 0 25 0 25 489 0 c316 0 492 -4 496 -10z m-145 -130 c0 -6 129 -10 368
-10 l368 0 0 -35 0 -35 -143 0 c-89 0 -143 4 -143 10 0 7 -222 10 -645 10
l-645 0 0 35 0 35 420 0 c273 0 420 -3 420 -10z m2300 -30 c0 -5 23 -10 50
-10 l50 0 0 -50 0 -50 -575 0 c-377 0 -575 3 -575 10 0 6 -78 10 -215 10
l-215 0 0 50 0 50 740 0 c487 0 740 -3 740 -10z m-2080 -160 c0 -6 93 -10 260
-10 167 0 260 -4 260 -10 0 -6 -107 -10 -300 -10 -193 0 -300 4 -300 10 0 7
-170 10 -490 10 -320 0 -490 3 -490 10 0 7 183 10 530 10 347 0 530 -3 530
-10z m-845 -80 c10 -16 875 -14 876 3 0 10 2 10 6 0 3 -10 62 -13 244 -13
l239 0 0 -50 0 -50 -640 0 c-420 0 -640 3 -640 10 0 6 -57 10 -150 10 l-150 0
0 50 0 50 104 0 c59 0 108 -4 111 -10z m1645 -40 c0 -6 27 -10 60 -10 33 0 60
4 60 10 0 6 11 10 25 10 14 0 25 -4 25 -10 0 -7 208 -10 605 -10 l606 0 -3
-77 -3 -78 -787 0 -788 0 0 87 0 88 100 0 c60 0 100 -4 100 -10z m-720 -101
c0 -12 -954 -8 -966 4 -4 4 212 7 479 7 337 0 487 -3 487 -11z m438 -274 l2
-125 -402 0 c-320 0 -399 -3 -390 -12 10 -10 105 -13 400 -13 l387 0 0 -98 0
-97 -130 -1 c-71 -1 -257 -2 -412 -2 -156 -1 -283 -4 -283 -9 0 -4 -169 -8
-375 -8 l-375 0 0 98 0 97 180 0 c139 0 180 2 180 12 0 10 -41 13 -180 13
l-180 0 0 125 0 125 70 0 c40 0 70 4 70 10 0 7 246 10 718 10 l717 0 3 -125z
m1656 91 c-1 -9 -2 -43 -3 -76 l-1 -60 -265 0 c-170 0 -265 -4 -265 -10 0 -7
-180 -10 -520 -10 l-520 0 0 78 0 77 291 0 c241 0 292 2 297 14 4 12 81 13
496 9 445 -5 491 -7 490 -22z m-4 -221 c0 -13 -66 -15 -530 -15 -347 0 -530
-3 -530 -10 0 -6 -92 -10 -255 -10 -220 0 -255 2 -255 15 0 13 66 15 535 15
350 0 535 3 535 10 0 6 90 10 250 10 216 0 250 -2 250 -15z m-940 -745 c0 -16
-7 -20 -30 -20 -16 0 -30 5 -30 10 0 6 -62 10 -165 10 -103 0 -165 4 -165 10
0 6 72 10 195 10 188 0 195 -1 195 -20z m275 -50 c4 -6 128 -10 341 -10 l334
0 0 -100 0 -100 -485 0 c-317 0 -485 3 -485 10 0 6 -108 10 -305 10 -197 0
-305 4 -305 10 0 7 162 10 465 10 303 0 465 3 465 10 0 7 -162 10 -465 10
l-465 0 0 80 0 80 449 0 c289 0 452 -4 456 -10z m-2135 -140 c0 -7 198 -10
575 -10 l575 0 0 -40 0 -40 -610 0 c-400 0 -610 3 -610 10 0 6 -67 10 -180 10
l-180 0 0 40 0 40 215 0 c137 0 215 -4 215 -10z m-350 -120 c0 -7 257 -10 751
-10 l750 0 -3 -37 -3 -38 -187 -3 c-114 -1 -188 -6 -188 -12 0 -6 73 -10 190
-10 l190 0 0 -70 0 -70 -719 0 c-469 0 -722 3 -726 10 -3 5 -35 10 -71 10
l-64 0 0 70 0 70 245 0 c157 0 245 4 245 10 0 6 -88 10 -245 10 l-245 0 0 40
0 40 40 0 c22 0 40 -4 40 -10z"/>
<path d="M2060 2080 c0 -5 5 -10 10 -10 6 0 10 5 10 10 0 6 -4 10 -10 10 -5 0
-10 -4 -10 -10z"/>
<path d="M1900 1525 c0 -13 22 -15 135 -15 113 0 135 2 135 15 0 13 -22 15
-135 15 -113 0 -135 -2 -135 -15z"/>
<path d="M467 174 c-20 -21 14 -24 244 -24 196 0 250 3 247 13 -4 9 -63 13
-244 15 -132 1 -243 -1 -247 -4z"/>
</g>
</svg>
